<svg t="1722393273400" class="icon" viewBox="0 0 1024 1024" version="1.1" xmlns="http://www.w3.org/2000/svg" p-id="7565" width="256" height="256"><path d="M256 768V192a64 64 0 0 1 64-64h128a64 64 0 0 1 64 64v192h192a64 64 0 0 1 64 64v320h64a64 64 0 1 1 0 128H192a64 64 0 1 1 0-128h64z m96-448a32 32 0 0 0 0 64h64a32 32 0 0 0 0-64h-64z m0 128a32 32 0 0 0 0 64h64a32 32 0 0 0 0-64h-64z m0 128a32 32 0 0 0 0 64h64a32 32 0 0 0 0-64h-64z m256-128a32 32 0 0 0 0 64h64a32 32 0 0 0 0-64h-64z m0 128a32 32 0 0 0 0 64h64a32 32 0 0 0 0-64h-64z" fill="#515151" p-id="7566"></path></svg>
