<svg t="1723954600107" class="icon" viewBox="0 0 1024 1024" version="1.1" xmlns="http://www.w3.org/2000/svg" p-id="4378" width="256" height="256"><path d="M850.688 250.304a26.048 26.048 0 0 0 26.112-26.048v-52.544c0-43.136-35.072-78.144-78.208-78.592H224.448c-42.688 0-77.312 34.112-78.208 76.8v627.2c0 71.872 58.432 130.752 130.304 130.752h574.144a26.048 26.048 0 0 0 0-52.16H276.992a78.208 78.208 0 0 1-78.208-78.144c0-43.136 35.072-78.656 78.208-78.656h574.144a26.048 26.048 0 0 0 26.112-26.048V218.88a26.432 26.432 0 0 0-24.768-27.392 26.432 26.432 0 0 0-27.392 24.704v450.176H276.992c-28.288 0.448-55.68 9.408-78.208 26.048V170.368c0-14.4 11.712-26.048 26.112-26.048h574.144c14.4 0 26.048 11.648 26.048 26.048v52.096a26.496 26.496 0 0 0 24.704 27.84h0.896z" fill="#515151" fill-opacity=".9" p-id="4379"></path><path d="M850.688 771.52H276.992a26.048 26.048 0 0 0 0 52.096h574.144a26.048 26.048 0 0 0 26.112-26.048 26.752 26.752 0 0 0-26.56-26.048z" fill="#515151" fill-opacity=".9" p-id="4380"></path></svg>
