<svg t="1761203354005" class="icon" viewBox="0 0 1024 1024" version="1.1" xmlns="http://www.w3.org/2000/svg" p-id="3327" width="256" height="256"><path d="M626.138038 63.668065 626.138038 252.797563 815.267537 252.797563 815.267537 189.754738 689.180863 63.668065Z" fill="#515151" p-id="3328"></path><path d="M530.457886 642.113383 480.880747 565.138244 431.302585 642.113383 312.579623 642.113383 422.172647 473.814306 312.579623 306.168098 430.652785 306.168098 480.880747 383.143237 530.457886 306.168098 648.526955 306.168098 540.240693 473.814306 648.526955 642.113383 530.457886 642.113383Z" fill="#515151" p-id="3329"></path><path d="M894.872572 812.918537 709.817879 666.246013 709.817879 768.734222 442.939623 768.734222 442.939623 860.633259 709.817879 860.633259 709.817879 959.594131Z" fill="#515151" p-id="3330"></path><path d="M406.523225 892.306632 198.359208 892.306632 198.359208 133.647883 748.208235 133.647883 748.208235 641.268132 817.087998 641.268132 817.087998 174.292582 706.806289 63.668065 129.480468 63.668065 129.480468 959.469288 406.523225 959.469288Z" fill="#515151" p-id="3331"></path></svg>
