<svg t="1757412056287" class="icon" viewBox="0 0 1024 1024" version="1.1" xmlns="http://www.w3.org/2000/svg" p-id="5939" width="200" height="200"><path d="M610.133333 162.133333c-10.666667-6.4-14.933333-19.2-8.533333-29.866666 6.4-10.666667 19.2-14.933333 29.866667-8.533334l298.666666 160c6.4 4.266667 10.666667 10.666667 10.666667 19.2v339.2c0 12.8-8.533333 21.333333-21.333333 21.333334s-21.333333-8.533333-21.333334-21.333334V315.733333L610.133333 162.133333z m183.466667 620.8c10.666667-6.4 23.466667-2.133333 29.866667 8.533334 6.4 10.666667 2.133333 23.466667-8.533334 29.866666l-292.266666 155.733334c-6.4 4.266667-14.933333 4.266667-19.2 0L211.2 819.2c-10.666667-6.4-14.933333-19.2-8.533333-29.866667 6.4-10.666667 19.2-14.933333 29.866666-8.533333L512 934.4l281.6-151.466667zM128 315.733333v326.4c0 12.8-8.533333 21.333333-21.333333 21.333334s-21.333333-8.533333-21.333334-21.333334V302.933333c0-8.533333 4.266667-14.933333 10.666667-19.2l298.666667-162.133333c10.666667-6.4 23.466667-2.133333 29.866666 8.533333 6.4 10.666667 2.133333 23.466667-8.533333 29.866667L128 315.733333zM512 192c-36.266667 0-64-27.733333-64-64s27.733333-64 64-64 64 27.733333 64 64-27.733333 64-64 64zM128 810.666667c-36.266667 0-64-27.733333-64-64s27.733333-64 64-64 64 27.733333 64 64-27.733333 64-64 64z m768 0c-36.266667 0-64-27.733333-64-64s27.733333-64 64-64 64 27.733333 64 64-27.733333 64-64 64z" fill="#515151" p-id="5940"></path></svg>
