<?xml version="1.0" standalone="no"?><!DOCTYPE svg PUBLIC "-//W3C//DTD SVG 1.1//EN" "http://www.w3.org/Graphics/SVG/1.1/DTD/svg11.dtd"><svg class="icon" width="200px" height="180.12px" viewBox="0 0 1137 1024" version="1.1" xmlns="http://www.w3.org/2000/svg"><path fill="#8a8a8a" d="M480.22069 331.917241c7.062069-21.186207 21.186207-35.310345 42.372413-42.372413 42.372414 0 84.744828 7.062069 112.993104 35.310344h7.062069l7.062069 7.062069h28.248276c7.062069 0 21.186207 7.062069 28.248276 7.062069 84.744828-28.248276 141.241379-70.62069 162.427586-120.055172v-28.248276C875.696552 84.744828 677.958621 0 437.848276 0 197.737931 0 7.062069 84.744828 7.062069 190.675862v28.248276c42.372414 98.868966 211.862069 162.427586 430.786207 162.427586h42.372414c-7.062069-14.124138-7.062069-28.248276 0-49.434483z m0 0"  /><path fill="#8a8a8a" d="M854.510345 444.910345c7.062069-7.062069 7.062069-14.124138 14.124138-28.248276v-141.241379c-21.186207 42.372414-56.496552 77.682759-105.931035 91.806896 21.186207 14.124138 35.310345 21.186207 49.434483 35.310345l42.372414 42.372414z m0 0M557.903448 543.77931c-7.062069-21.186207-21.186207-42.372414-21.186207-63.55862 0-7.062069 0-7.062069-7.062069-14.124138v-7.062069c-7.062069 0-14.124138-7.062069-14.124138-14.124138s-7.062069-7.062069-7.062068-7.062069h-70.62069C218.924138 437.848276 35.310345 367.227586 0 275.42069V423.724138c42.372414 91.806897 218.924138 155.365517 430.786207 155.365517 49.434483 0 91.806897 0 141.241379-7.062069-7.062069-7.062069-7.062069-21.186207-14.124138-28.248276z m0 0"  /><path fill="#8a8a8a" d="M564.965517 628.524138c-42.372414 7.062069-84.744828 7.062069-127.117241 7.062069-211.862069 0-395.475862-70.62069-430.786207-155.365517v148.303448c42.372414 91.806897 218.924138 155.365517 430.786207 155.365517 56.496552 0 105.931034-7.062069 162.427586-14.124138 0-7.062069-7.062069-7.062069-7.062069-14.124138-28.248276-35.310345-35.310345-84.744828-28.248276-127.117241z m0 0"  /><path fill="#8a8a8a" d="M699.144828 798.013793c-84.744828 28.248276-176.551724 42.372414-261.296552 42.372414-211.862069 0-395.475862-70.62069-430.786207-155.365517v141.241379c0 105.931034 190.675862 197.737931 437.848276 197.737931 197.737931 0 360.165517-56.496552 416.662069-141.241379l-21.186207-7.062069c-56.496552-21.186207-98.868966-42.372414-141.241379-77.682759z m0 0M1066.372414 861.572414c-28.248276-21.186207-42.372414-21.186207-49.434483-35.310345 7.062069 7.062069 35.310345-14.124138 42.372414-14.124138 7.062069-7.062069 21.186207-7.062069 35.310345-7.062069h14.124138c7.062069-7.062069-7.062069-14.124138-7.062069-14.124138l-14.124138-14.124138c-35.310345-28.248276-70.62069-56.496552-112.993104-70.620689-14.124138-7.062069-28.248276-14.124138-28.248276-28.248276l-21.186207-42.372414c-14.124138-28.248276-21.186207-56.496552-42.372413-84.744828-21.186207-42.372414-56.496552-77.682759-91.806897-105.931034-14.124138-21.186207-35.310345-35.310345-56.496552-49.434483-21.186207-14.124138-42.372414-21.186207-70.620689-28.248276H635.586207c-7.062069 0-14.124138-7.062069-21.186207-14.124138-21.186207-14.124138-84.744828-49.434483-98.868966 0-14.124138 28.248276 14.124138 56.496552 28.248276 70.62069 7.062069 0 14.124138 14.124138 21.186207 28.248276 0 7.062069 0 14.124138 7.062069 21.186207 7.062069 21.186207 14.124138 35.310345 21.186207 56.496551 7.062069 7.062069 7.062069 21.186207 14.124138 28.248276 0 0 7.062069 0 7.062069 7.062069 0 14.124138-7.062069 21.186207-7.062069 35.310345-14.124138 49.434483-7.062069 98.868966 14.124138 141.241379 7.062069 7.062069 21.186207 35.310345 42.372414 21.186207 21.186207-7.062069 14.124138-28.248276 21.186207-49.434482v-14.124138c7.062069 14.124138 14.124138 21.186207 14.124138 35.310344 28.248276 56.496552 84.744828 84.744828 141.241379 98.868966 35.310345 14.124138 77.682759 21.186207 112.993103 35.310345 21.186207 7.062069 63.558621 21.186207 98.868966 35.310345 42.372414 14.124138 70.62069 21.186207 70.62069 28.248275 0 0 7.062069 0 7.062068 7.062069 0-14.124138-21.186207-42.372414-63.55862-77.682758zM663.834483 444.910345h-14.124138c-7.062069 0-7.062069-7.062069-7.062069-14.124138s0-14.124138 7.062069-14.124138h14.124138c7.062069 0 7.062069 7.062069 7.062069 14.124138s0 7.062069-7.062069 14.124138z m0 0"  /></svg>