<svg t="1760489458917" class="icon" viewBox="0 0 1382 1024" version="1.1" xmlns="http://www.w3.org/2000/svg" p-id="9479" width="256" height="256"><path d="M880.0256 764.7744c57.856 0 105.216 44.7488 109.4144 101.4784l0.3072 8.192v96a45.7216 45.7216 0 0 1-39.68 45.3632l-6.0416 0.3584h-512a45.7216 45.7216 0 0 1-45.312-39.68l-0.4096-6.0416V874.496c0-57.856 44.7488-105.216 101.5296-109.4144l8.192-0.256h384zM1232.0256 44.7488c57.856 0 105.216 44.7488 109.4144 101.5296l0.3072 8.192v576c0 57.856-44.7488 105.216-101.5296 109.4144l-8.192 0.3072h-174.4384l-2.048-11.264a164.5056 164.5056 0 0 0-39.2704-80.384l-7.8848-8.2432-24.2688-23.552h234.1888V168.192H157.696v548.5568h234.1888l-24.2176 23.552c-21.8624 21.248-37.376 48.0768-44.8 77.4656l-2.4064 11.1616-2.048 11.264H144.0256a109.7216 109.7216 0 0 1-109.4144-101.5296l-0.3072-8.192V154.4704c0-57.856 44.7488-105.216 101.5296-109.4144l8.192-0.3072h1088zM688.0256 396.7488a157.696 157.696 0 1 1 0 315.392 157.696 157.696 0 0 1 0-315.392z" fill="#515151" p-id="9480"></path></svg>
