<?xml version="1.0" standalone="no"?><!DOCTYPE svg PUBLIC "-//W3C//DTD SVG 1.1//EN" "http://www.w3.org/Graphics/SVG/1.1/DTD/svg11.dtd"><svg class="icon" width="200px" height="175.34px" viewBox="0 0 1168 1024" version="1.1" xmlns="http://www.w3.org/2000/svg"><path fill="#8a8a8a" d="M419.938876 433.237405c231.768673 0 419.925604-69.093954 419.925605-154.844248v-123.56218C839.864481 69.093954 651.654462 0 419.938876 0S0 69.093954 0 154.830977v123.56218C0 363.652388 187.732227 433.237405 419.938876 433.237405zM0.424704 649.597304v185.595438C0.424704 920.438701 188.156931 990.090078 420.36358 990.090078q19.483274 0 38.488756-0.663599c-44.952213-48.787817-74.628371-113.621463-80.760028-185.701613C166.005988 795.960754 0.424704 730.118437 0.424704 649.597304zM737.749828 472.482665h102.114653v-101.265246c0 38.767468-38.502028 74.137308-102.114653 101.265246zM385.033556 711.099682c16.258182-78.437431 60.878595-145.514043 121.810278-188.382554-28.043704 2.163334-57.069535 3.317996-86.904958 3.317996C188.156931 526.035124 0 456.94117 0 371.204147v185.595438c0 80.919292 169.204536 147.743737 385.033556 154.300097zM1047.040166 887.285283c-28.68076 30.631741-67.620763 47.779146-108.193222 47.779146H676.260722c-56.897-1.207751-102.990603-28.468408-128.472815-78.304712h-99.539887c29.928326 102.618988 115.864429 167.134107 221.894317 167.134107l274.822993 0.079632c62.670313 0 122.818949-26.54397 167.22701-73.858596a255.246815 255.246815 0 0 0 56.379392-96.407699l-94.337269 0.437975c-7.166872 14.254112-16.24491 21.288264-27.194297 33.140147zM449.575219 689.599067l96.88549 1.327198c25.216771-53.08794 69.956633-81.025468 129.800013-82.286306h262.586222a148.30116 148.30116 0 0 1 108.193222 47.779145c10.76358 11.493539 16.629797 16.417445 23.663949 30.525566h96.88549c-31.215709-100.256574-118.120666-167.134107-222.624275-167.134107H670.142337c-106.082976 0-184.732759 74.230212-220.567118 169.788504zM1101.442032 818.589489h54.415139l10.36542-16.152006h-63.572808a29.62307 29.62307 0 0 1-28.508224-21.553704h75.331787l10.352148-16.152005h-85.683935a29.68943 29.68943 0 0 1 28.54804-21.606792h51.681109l10.365421-16.152006H1101.442032a45.814892 45.814892 0 0 0 0 91.576697zM959.856497 726.972976v82.830459a8.454254 8.454254 0 0 0 2.654397 6.105113 9.078038 9.078038 0 0 0 6.476728 2.654397h80.322053l10.365421-16.138734h-82.180131v-75.451235zM716.581012 757.511814a30.936997 30.936997 0 0 0-30.525565-30.525566h-77.096961v91.576697h17.638468v-75.517595H684.834424A14.798263 14.798263 0 0 1 699.699047 757.830342a14.864623 14.864623 0 0 1-14.864623 14.957527h-49.637224l52.557061 45.80162h25.535299l-35.396384-29.662887h8.095911a30.950269 30.950269 0 0 0 30.591925-31.414788zM500.513097 726.972976a45.814892 45.814892 0 0 0 0 91.576697h53.247204a45.814892 45.814892 0 1 0 0-91.576697z m81.702339 45.814893a29.649614 29.649614 0 0 1-29.649614 29.649614H501.681032a29.68943 29.68943 0 0 1 0-59.365589h50.898062a29.649614 29.649614 0 0 1 29.636342 29.715975zM941.488069 818.629305l10.365421-16.138734h-64.674383a29.68943 29.68943 0 1 1 1.154663-59.365589h51.760741l10.36542-16.152006h-64.355855a45.814892 45.814892 0 0 0 1.021943 91.576697zM772.203901 802.397667h47.646426l9.768181 16.191822h20.770657l-55.742337-87.037678a13.271985 13.271985 0 0 0-21.566976 0.145992l-55.476897 86.891686h20.783929l45.575996-72.358862 24.845156 40.015034H761.811937z" /></svg>