<?xml version="1.0" standalone="no"?><!DOCTYPE svg PUBLIC "-//W3C//DTD SVG 1.1//EN" "http://www.w3.org/Graphics/SVG/1.1/DTD/svg11.dtd"><svg class="icon" width="200px" height="200.00px" viewBox="0 0 1024 1024" version="1.1" xmlns="http://www.w3.org/2000/svg"><path fill="#8a8a8a" d="M466.432 432.64c247.30112 0 419.84-62.464 419.84-139.776V208.896c0-77.312-172.53888-139.776-419.84-139.776-247.296 0-391.68 62.464-391.68 139.776v83.968c0 77.312 144.384 139.776 391.68 139.776zM415.232 768c-169.97888-6.144-268.8-45.056-321.01888-96.768-13.31712 13.31712-19.968 27.14112-19.968 41.984v112.128c0 77.312 144.384 139.776 391.68 139.776 24.576 0 48.64-1.024 72.704-2.048C475.136 916.48 430.08 847.36 415.232 768zM410.112 711.68c0.51712-73.728 26.624-141.824 70.144-194.56h-15.872c-200.192 0-312.832-40.96-370.176-98.304-13.31712 13.312-19.968 27.136-19.968 41.984v112.64c0 70.656 122.88 129.536 335.872 138.24zM766.34112 707.83488c0-16.65024-4.08576-29.42976-11.32544-38.76864-7.15776-9.29792-17.05984-13.93152-29.78816-13.93152-12.88192 0-23.13216 4.76672-30.74048 14.34112-7.63904 9.58976-11.42784 22.23104-11.42784 37.98528 0 15.77472 3.72736 28.38528 11.20768 37.76512 7.52128 9.43104 17.55136 14.11072 30.10048 14.11072 12.81024 0 22.89152-4.55168 30.34624-13.62944 7.41376-9.09824 11.62752-21.87264 11.62752-37.87264zM718.36672 460.8C579.21536 460.8 466.432 573.57312 466.432 712.68864c0 139.14624 112.78336 251.9296 251.93472 251.9296 139.1104 0 251.86816-112.78336 251.86816-251.9296 0-139.11552-112.75776-251.88864-251.86816-251.88864m-103.3472 315.66336c-10.68544 7.87456-25.83552 11.82208-45.48608 11.82208-17.93024 0-32.67072-2.88256-44.08832-8.69376v-33.50016c12.6208 10.46016 26.96192 15.69792 42.96192 15.69792 9.16992 0 16.01024-1.59232 20.58752-4.71552 4.57728-3.13856 6.8352-7.16288 6.8352-12.07808 0-4.2496-1.79712-8.2688-5.44256-12.05248-3.65056-3.7888-13.2864-8.90368-28.82048-15.4112-24.4992-10.35264-36.7872-25.4976-36.7872-45.32224 0-14.57152 5.57568-25.89184 16.67072-33.9456 11.0848-8.07424 25.82528-12.0832 44.09344-12.0832 15.32928 0 28.14976 1.99168 38.56896 5.95456v31.40096c-10.56256-7.17824-22.85568-10.76736-36.98176-10.76736-8.23808 0-14.81216 1.53088-19.73248 4.52096-4.90496 3.00032-7.36256 7.02976-7.36256 12.08832 0 4.03968 1.67424 7.7824 5.0432 11.18208 3.38944 3.42016 11.68896 8.01792 25.0368 13.7984 15.53408 6.72256 26.29632 13.76256 32.13824 21.18144 5.77536 7.41888 8.68352 16.2304 8.68352 26.51136 0.00512 15.02208-5.28896 26.51136-15.91808 34.41152m196.13696 52.93056c-6.64064 1.96096-14.61248 2.91328-23.90016 2.91328-10.76224 0-20.992-2.94912-30.73024-8.832-9.8304-5.90336-22.4-17.72544-37.80096-35.49184-21.49888-0.64512-38.77888-8.44288-51.77856-23.36768-12.94848-14.90944-19.46112-33.36704-19.46112-55.38304 0-24.86272 7.11168-44.93824 21.39136-60.19072 14.27456-15.2576 33.39776-22.8608 57.23648-22.8608 21.9136 0 39.71584 7.28576 53.57568 21.9392 13.80864 14.64832 20.73088 33.95072 20.73088 57.91232 0 18.80576-4.18304 35.01056-12.63104 48.54784-8.4992 13.57824-20.4544 23.00928-36.0448 28.35968 6.5536 7.13216 13.06624 12.42112 19.44576 15.83104 6.30272 3.38944 14.42304 5.11488 24.17152 5.11488 5.90336 0 11.21792-0.92672 15.80032-2.75456v28.2624h-0.00512z m15.80544-43.8272v-156.75904h33.40288v129.43872h58.56768v27.32032h-91.97056z" /></svg>