<svg t="1721644742537" class="icon" viewBox="0 0 1024 1024" version="1.1" xmlns="http://www.w3.org/2000/svg" p-id="5988" width="256" height="256"><path d="M512 512m-508.562 0a508.562 508.562 0 1 0 1017.124 0 508.562 508.562 0 1 0-1017.124 0Z" fill="#1296db" opacity=".08" p-id="5989"></path><path d="M554.667 798.994l10.273-59.295-43.361-41.983c-15.051-14.469-20.425-34.037-14.455-52.18 5.973-18.146 21.862-30.717 42.527-33.68l52.438-7.589c-2.268-1.545-4.299-3.086-6.21-4.746-6.571-5.692-11.229-11.741-14.097-17.907-2.865-6.168-4.539-12.572-4.897-18.737-0.357-6.284 0-12.454 1.194-18.5 0.837-4.863 2.152-9.013 3.702-12.452a28.96 28.96 0 0 1 6.094-8.778c2.508-2.371 5.256-4.743 8.601-6.877 3.345-2.252 6.69-4.862 10.392-8.182 3.226-2.848 6.091-6.762 8.839-11.861 2.508-4.98 4.898-10.197 6.93-15.417 2.028-5.93 3.944-12.333 5.494-18.737 4.063-1.186 7.884-3.322 11.587-6.643 3.226-2.844 6.093-6.758 8.842-11.857 2.508-5.1 4.539-11.742 5.732-20.281 0.837-6.523 0.718-11.857-0.24-16.363-0.953-4.507-2.387-8.067-3.942-10.911-1.55-3.322-3.821-5.812-6.687-7.354 0.357-16.129-0.6-32.376-3.108-48.505-1.911-13.754-5.494-28.343-10.629-43.879-5.136-15.537-12.784-29.767-22.936-42.692-4.539-5.694-10.394-11.268-17.801-16.724-7.166-5.453-15.645-10.318-24.963-14.824-9.439-4.506-19.471-8.063-30.223-10.909-10.75-2.845-22.215-4.269-33.923-4.269-9.439 0-19.113 0.95-29.029 2.491-10.033 1.779-19.828 4.506-29.623 8.538-9.796 4.034-19.471 9.606-29.026 16.722-9.56 7.115-18.159 16.129-25.922 27.039-8.124 11.621-14.334 24.787-18.637 39.373-4.3 14.586-7.287 28.343-8.839 41.271-2.15 15.417-2.868 30.833-2.508 46.131-3.345 4.151-5.853 8.304-7.406 12.811-1.672 4.029-2.749 8.773-3.346 14.227-0.716 5.458 0 11.742 2.031 18.503 2.151 6.877 4.539 12.095 7.408 15.771 2.865 3.679 5.494 6.523 8 8.539a26.408 26.408 0 0 0 8.602 4.268 1155.76 1155.76 0 0 0 6.094 18.738c2.03 5.218 4.179 10.318 6.69 15.417 2.508 5.103 5.253 9.013 8.599 11.861 7.046 5.692 13.14 11.148 18.637 16.367 5.492 5.218 8.598 12.688 9.435 22.413 0.357 6.165 0.597 11.86 0.597 17.075 0 5.338-0.955 10.318-2.749 15.183-1.79 4.86-5.135 9.724-9.795 14.586-4.656 4.863-11.226 9.962-19.828 15.181-10.511 6.877-22.816 12.095-36.91 15.771-14.094 3.679-75.495 24.668-88.756 29.174-13.137 4.387-24.723 10.437-34.518 18.146-9.676 7.589-15.77 18.972-18.278 33.915-4.063 25.854-4.9 30.007-2.748 46.609 2.15 16.482 5.495 26.326 10.035 29.648 3.702 2.729 14.215 6.049 31.775 9.962 17.56 3.912 127.934 24.546 256.106 24.546 16.724 0 32.85-0.353 48.379-1.065-0.717-5.575-0.598-11.266 0.357-17.079z m253.48-146.106l-63.909-9.249c-9.795-1.423-21.381-9.724-25.802-18.621l-28.549-57.515c-2.15-4.391-5.135-6.642-8.003-6.642-2.865 0-5.734 2.251-8.002 6.642l-28.549 57.515c-4.422 8.778-16.008 17.198-25.803 18.621l-63.906 9.249c-9.796 1.424-12.066 8.185-4.9 15.062l46.228 44.711c7.047 6.877 11.467 20.396 9.796 30.121l-10.87 63.21c-1.193 6.996 1.552 11.145 6.45 11.145 1.912 0 4.063-0.593 6.45-1.896l57.098-29.883c4.42-2.255 10.154-3.441 15.889-3.441 5.734 0 11.586 1.186 15.886 3.441l57.098 29.883c2.389 1.303 4.658 1.896 6.45 1.896 4.9 0 7.644-4.148 6.45-11.145l-10.869-63.21c-1.671-9.725 2.748-23.244 9.795-30.121l46.23-44.711c7.289-6.877 5.137-13.638-4.658-15.062z m0 0" fill="#1296db" p-id="5990"></path></svg>
