<svg t="1722394895640" class="icon" viewBox="0 0 1024 1024" version="1.1" xmlns="http://www.w3.org/2000/svg" p-id="39898" width="256" height="256"><path d="M890.56 448.48s69.984 236.992-147.2 323.84c-220.8 88.32-426.88-80.96-448.96-95.68a188 188 0 0 1-6.848-4.928l-4.896-3.648C239.04 635.52 104.96 538.24 0 610.4c0 0 56.64-56.8 160.8-39.456 104.16 17.376 207.2 127.776 324.96 164.576 85.472 26.72 225.28 9.472 278.24-24.704 52.992-34.176 126.592-93.056 126.592-262.336z m103.04-88.32s125.12 235.52-132.48 360.64c0 0 93.888-84.16 79.936-201.152l-1.024-6.944 0.192 1.024c1.28 6.592 6.304 23.072 23.968 23.072 22.08 0 58.88-80.96 29.44-176.64zM777.44 224l69.024 33.12 7.36 220.8v0.544c-0.224 12.768-7.68 242.048-276.032 232.032-228.16-8.512-250.112-194.56-250.848-258.816v-5.824c0.064-9.952 0.64-15.776 0.64-15.776l7.36-169.28 73.6-36.8 62.528 47.84v213.44c0 14.72 14.72 125.12 132.48 117.76 117.76-7.36 110.4-147.2 110.4-147.2l-7.36-184L777.408 224zM110.4 544.16s103.04-66.24 191.36 7.36c0 0 7.36 51.52 36.8 73.6-22.08-7.36-73.6-66.24-117.76-80.96-44.16-14.72-110.4 0-110.4 0z" p-id="39899" fill="#515151"></path></svg>
